<svg width="463.71875px" height="113.6px" xmlns="http://www.w3.org/2000/svg" viewBox="18.140625 18.200000000000003 463.71875 113.6" style="background: rgb(255, 255, 255);" preserveAspectRatio="xMidYMid"><defs><filter id="editing-hole" x="-100%" y="-100%" width="300%" height="300%"><feFlood flood-color="#5e6fa3" result="black"></feFlood><feMorphology operator="dilate" radius="2" in="SourceGraphic" result="erode"></feMorphology><feGaussianBlur in="erode" stdDeviation="4" result="blur"></feGaussianBlur><feOffset in="blur" dx="2" dy="2" result="offset"></feOffset><feComposite operator="atop" in="offset" in2="black" result="merge"></feComposite><feComposite operator="in" in="merge" in2="SourceGraphic" result="inner-shadow"></feComposite></filter></defs><g filter="url(#editing-hole)"><g transform="translate(86.51998281478882, 94.44999885559082)"><path d="M18.29-16.32L18.29-16.32L11.34-16.32L11.34-4.08L11.34-4.08Q11.34-3.29 11.55-2.86L11.55-2.86L11.55-2.86Q11.77-2.44 12.51-2.23L12.51-2.23L16.91-1.48L16.54 0.42L16.54 0.42Q12.83 0 9.88 0L9.88 0L9.88 0Q6.94 0 3.02 0.42L3.02 0.42L2.65-1.32L2.65-1.32Q4.77-1.59 5.70-1.99L5.70-1.99L5.70-1.99Q6.63-2.38 6.63-3.66L6.63-3.66L6.63-30.90L6.63-30.90Q6.63-32.22 5.78-32.49L5.78-32.49L5.78-32.49Q4.40-32.97 2.65-33.18L2.65-33.18L3.02-34.93L3.02-34.93Q7.05-34.45 9.01-34.45L9.01-34.45L21.78-34.45L21.78-34.45Q24.11-34.45 26.13-34.77L26.13-34.77L26.13-34.77Q26.29-33.28 26.29-31.14L26.29-31.14L26.29-31.14Q26.29-28.99 26.18-26.45L26.18-26.45L24.22-26.13L24.22-26.13Q23.21-31.00 22.42-31.96L22.42-31.96L11.34-31.96L11.34-18.87L18.29-18.87L18.29-18.87Q19.77-18.87 20.03-19.66L20.03-19.66L20.03-19.66Q20.35-20.41 20.56-22.15L20.56-22.15L20.67-22.79L22.68-22.58L22.68-22.58Q22.26-19.93 22.26-17.60L22.26-17.60L22.26-17.60Q22.26-15.26 22.68-12.61L22.68-12.61L20.67-12.40L20.67-12.40Q20.41-14.68 20.06-15.50L20.06-15.50L20.06-15.50Q19.72-16.32 18.29-16.32ZM40.23 0.85L40.23 0.85L40.23 0.85Q35.09 0.85 32.22-2.23L32.22-2.23L32.22-2.23Q29.36-5.30 29.36-10.63L29.36-10.63L29.36-10.63Q29.36-15.95 32.41-19.42L32.41-19.42L32.41-19.42Q35.46-22.90 40.57-22.90L40.57-22.90L40.57-22.90Q45.69-22.90 48.60-19.80L48.60-19.80L48.60-19.80Q51.52-16.70 51.52-11.42L51.52-11.42L51.52-11.42Q51.52-6.15 48.44-2.65L48.44-2.65L48.44-2.65Q45.37 0.85 40.23 0.85ZM34.08-11.61L34.08-11.61L34.08-11.61Q34.08-6.63 35.93-3.98L35.93-3.98L35.93-3.98Q37.79-1.32 41.13-1.32L41.13-1.32L41.13-1.32Q46.75-1.32 46.75-10.44L46.75-10.44L46.75-10.44Q46.75-15.37 44.86-18.05L44.86-18.05L44.86-18.05Q42.98-20.72 39.64-20.72L39.64-20.72L39.64-20.72Q34.08-20.72 34.08-11.61ZM68.48-19.29L68.48-19.29L68.48-19.29Q66.46-19.29 63.65-15.32L63.65-15.32L63.65-3.55L63.65-3.55Q63.65-2.86 63.86-2.57L63.86-2.57L63.86-2.57Q64.08-2.28 64.66-2.07L64.66-2.07L64.66-2.07Q65.56-1.70 67.95-1.48L67.95-1.48L68.74-1.38L68.37 0.42L68.37 0.42Q63.60 0 61.53 0L61.53 0L61.53 0Q59.47 0 55.97 0.42L55.97 0.42L55.54-1.17L55.54-1.17Q57.61-1.48 58.38-1.88L58.38-1.88L58.38-1.88Q59.15-2.28 59.28-2.54L59.28-2.54L59.28-2.54Q59.41-2.81 59.41-3.50L59.41-3.50L59.41-17.81L59.41-17.81Q59.41-19.40 58.51-19.56L58.51-19.56L58.51-19.56Q57.61-19.66 56.18-19.40L56.18-19.40L55.60-19.29L55.33-20.88L55.33-20.88Q59.04-22.52 62.33-22.90L62.33-22.90L63.18-21.94L63.18-21.94Q63.18-20.25 63.65-17.86L63.65-17.86L65.40-20.09L65.40-20.09Q67.68-22.90 70.17-22.90L70.17-22.90L70.17-22.90Q71.23-22.90 73.94-21.89L73.94-21.89L73.94-21.89Q73.19-17.70 72.13-15.05L72.13-15.05L70.70-14.95L70.70-14.95Q70.70-16.85 70.15-18.07L70.15-18.07L70.15-18.07Q69.59-19.29 68.48-19.29ZM91.53 0.42L91.16-1.17L91.16-1.17Q92.86-1.38 92.86-2.33L92.86-2.33L92.86-2.33Q92.86-2.86 92.27-3.50L92.27-3.50L83.85-12.40L83.85-3.50L83.85-3.50Q83.85-2.81 83.98-2.54L83.98-2.54L83.98-2.54Q84.11-2.28 84.69-1.96L84.69-1.96L87.13-1.17L86.71 0.42L86.71 0.42Q82.20 0 81.25 0L81.25 0L81.25 0Q80.30 0 76.16 0.42L76.16 0.42L75.74-1.17L75.74-1.17Q77.80-1.48 78.57-1.88L78.57-1.88L78.57-1.88Q79.34-2.28 79.47-2.54L79.47-2.54L79.47-2.54Q79.61-2.81 79.61-3.50L79.61-3.50L79.61-32.97L79.61-32.97Q79.61-34.50 78.70-34.77L78.70-34.77L78.70-34.77Q77.96-34.87 76.27-34.56L76.27-34.56L75.74-34.45L75.47-36.09L75.47-36.09Q79.66-37.84 83.47-38.05L83.47-38.05L84.22-37.10L84.22-37.10Q83.85-35.51 83.85-31.96L83.85-31.96L83.85-12.51L91.48-19.03L91.48-19.03Q93.28-20.62 90.21-20.83L90.21-20.83L90.05-22.37L90.05-22.37Q92.22-22.05 94.74-22.05L94.74-22.05L94.74-22.05Q97.25-22.05 99.22-22.37L99.22-22.37L99.06-20.78L99.06-20.78Q97.78-20.62 96.94-20.38L96.94-20.38L96.94-20.38Q96.09-20.14 94.92-19.08L94.92-19.08L88.25-13.30L97.52-3.50L97.52-3.50Q98.84-2.07 99.85-1.70L99.85-1.70L101.71-1.17L101.34 0.42L101.34 0.42Q98.69 0 96.33 0L96.33 0L96.33 0Q93.97 0 91.53 0.42L91.53 0.42ZM115.70-2.49L115.70-2.49L115.70-2.49Q118.88-2.49 122.06-4.77L122.06-4.77L122.91-3.60L122.91-3.60Q118.08 0.85 113.61 0.85L113.61 0.85L113.61 0.85Q109.13 0.85 106.24-2.25L106.24-2.25L106.24-2.25Q103.35-5.35 103.35-10.49L103.35-10.49L103.35-10.49Q103.35-15.63 106.27-19.27L106.27-19.27L106.27-19.27Q109.18-22.90 113.82-22.90L113.82-22.90L113.82-22.90Q118.45-22.90 120.73-20.01L120.73-20.01L120.73-20.01Q123.01-17.12 123.01-12.19L123.01-12.19L108.07-11.13L108.07-11.13Q108.49-2.49 115.70-2.49ZM113.53-20.72L113.53-20.72L113.53-20.72Q110.72-20.72 109.39-18.47L109.39-18.47L109.39-18.47Q108.07-16.22 108.07-13.04L108.07-13.04L118.24-14.31L118.24-14.31Q118.24-20.72 113.53-20.72ZM147.87-31.91L147.87-4.50L147.87-4.50Q147.87-3.13 148.66-2.78L148.66-2.78L148.66-2.78Q149.46-2.44 150.36-2.44L150.36-2.44L150.36-2.44Q151.26-2.44 152.06-2.54L152.06-2.54L152.43-0.95L152.43-0.95Q148.98-0.27 146.23 0.85L146.23 0.85L146.23 0.85Q144.27-0.64 143.79-2.76L143.79-2.76L143.79-2.76Q139.39 0.85 136.79 0.85L136.79 0.85L136.79 0.85Q132.13 0.85 129.66-2.12L129.66-2.12L129.66-2.12Q127.20-5.09 127.20-10.44L127.20-10.44L127.20-10.44Q127.20-15.79 130.30-19.34L130.30-19.34L130.30-19.34Q133.40-22.90 138.65-22.90L138.65-22.90L138.65-22.90Q141.30-22.90 143.63-21.78L143.63-21.78L143.63-32.97L143.63-32.97Q143.63-34.61 142.68-34.77L142.68-34.77L142.68-34.77Q141.77-34.87 139.92-34.56L139.92-34.56L139.34-34.45L139.07-36.04L139.07-36.04Q140.56-36.73 143.15-37.34L143.15-37.34L143.15-37.34Q145.75-37.95 147.45-38.05L147.45-38.05L148.24-37.10L148.24-37.10Q147.87-35.51 147.87-31.91L147.87-31.91ZM131.92-11.42L131.92-11.42L131.92-11.42Q131.92-6.78 133.67-4.53L133.67-4.53L133.67-4.53Q135.41-2.28 138.17-2.28L138.17-2.28L138.17-2.28Q140.93-2.28 143.63-4.40L143.63-4.40L143.63-17.60L143.63-17.60Q142.73-19.03 141.19-19.88L141.19-19.88L141.19-19.88Q139.66-20.72 138.17-20.72L138.17-20.72L138.17-20.72Q135.36-20.72 133.64-18.39L133.64-18.39L133.64-18.39Q131.92-16.06 131.92-11.42ZM171.24-16.32L171.24-16.32L164.30-16.32L164.30-4.08L164.30-4.08Q164.30-3.29 164.51-2.86L164.51-2.86L164.51-2.86Q164.72-2.44 165.47-2.23L165.47-2.23L169.87-1.48L169.49 0.42L169.49 0.42Q165.78 0 162.84 0L162.84 0L162.84 0Q159.90 0 155.98 0.42L155.98 0.42L155.61-1.32L155.61-1.32Q157.73-1.59 158.66-1.99L158.66-1.99L158.66-1.99Q159.58-2.38 159.58-3.66L159.58-3.66L159.58-30.90L159.58-30.90Q159.58-32.22 158.73-32.49L158.73-32.49L158.73-32.49Q157.36-32.97 155.61-33.18L155.61-33.18L155.98-34.93L155.98-34.93Q160.01-34.45 161.97-34.45L161.97-34.45L174.74-34.45L174.74-34.45Q177.07-34.45 179.09-34.77L179.09-34.77L179.09-34.77Q179.25-33.28 179.25-31.14L179.25-31.14L179.25-31.14Q179.25-28.99 179.14-26.45L179.14-26.45L177.18-26.13L177.18-26.13Q176.17-31.00 175.38-31.96L175.38-31.96L164.30-31.96L164.30-18.87L171.24-18.87L171.24-18.87Q172.73-18.87 172.99-19.66L172.99-19.66L172.99-19.66Q173.31-20.41 173.52-22.15L173.52-22.15L173.63-22.79L175.64-22.58L175.64-22.58Q175.22-19.93 175.22-17.60L175.22-17.60L175.22-17.60Q175.22-15.26 175.64-12.61L175.64-12.61L173.63-12.40L173.63-12.40Q173.36-14.68 173.02-15.50L173.02-15.50L173.02-15.50Q172.67-16.32 171.24-16.32ZM190.00-16.75L190.00-3.50L190.00-3.50Q190.00-2.81 190.14-2.54L190.14-2.54L190.14-2.54Q190.27-2.28 190.80-2.01L190.80-2.01L190.80-2.01Q191.81-1.48 193.34-1.27L193.34-1.27L193.87-1.17L193.50 0.42L193.50 0.42Q189.95 0 187.88 0L187.88 0L187.88 0Q185.82 0 182.32 0.42L182.32 0.42L181.90-1.17L181.90-1.17Q183.96-1.48 184.73-1.88L184.73-1.88L184.73-1.88Q185.50-2.28 185.63-2.54L185.63-2.54L185.63-2.54Q185.76-2.81 185.76-3.50L185.76-3.50L185.76-18.07L185.76-18.07Q185.76-19.61 184.86-19.77L184.86-19.77L184.86-19.77Q184.07-19.88 182.37-19.56L182.37-19.56L182.06-21.15L182.06-21.15Q183.64-21.78 186.03-22.34L186.03-22.34L186.03-22.34Q188.41-22.90 189.79-22.90L189.79-22.90L190.59-21.94L190.59-21.94Q190.00-19.72 190.00-16.75L190.00-16.75ZM184.78-29.65L184.78-29.65L184.78-29.65Q183.91-30.47 183.91-31.75L183.91-31.75L183.91-31.75Q183.91-33.02 184.76-33.87L184.76-33.87L184.76-33.87Q185.61-34.71 186.98-34.71L186.98-34.71L186.98-34.71Q188.36-34.71 189.24-33.87L189.24-33.87L189.24-33.87Q190.11-33.02 190.11-31.75L190.11-31.75L190.11-31.75Q190.11-30.47 189.24-29.65L189.24-29.65L189.24-29.65Q188.36-28.83 187.01-28.83L187.01-28.83L187.01-28.83Q185.66-28.83 184.78-29.65ZM205.06-17.01L205.06-3.39L205.06-3.39Q205.06-2.70 205.19-2.46L205.19-2.46L205.19-2.46Q205.32-2.23 205.85-1.96L205.85-1.96L205.85-1.96Q206.86-1.43 208.71-1.11L208.71-1.11L208.34 0.42L208.34 0.42Q204.00 0 202.86 0L202.86 0L202.86 0Q201.72 0 197.37 0.42L197.37 0.42L196.95-1.17L196.95-1.17Q199.01-1.48 199.78-1.88L199.78-1.88L199.78-1.88Q200.55-2.28 200.68-2.54L200.68-2.54L200.68-2.54Q200.82-2.81 200.82-3.50L200.82-3.50L200.82-17.81L200.82-17.81Q200.82-19.40 199.92-19.56L199.92-19.56L199.92-19.56Q199.01-19.66 197.58-19.40L197.58-19.40L197.00-19.29L196.74-20.88L196.74-20.88Q200.50-22.52 203.63-22.90L203.63-22.90L204.47-21.94L204.47-21.94Q204.47-20.56 205.00-18.97L205.00-18.97L207.02-20.51L207.02-20.51Q210.04-22.90 213.38-22.90L213.38-22.90L213.38-22.90Q216.72-22.90 218.49-21.04L218.49-21.04L218.49-21.04Q220.27-19.19 220.27-14.89L220.27-14.89L220.27-3.50L220.27-3.50Q220.27-2.81 220.40-2.54L220.40-2.54L220.40-2.54Q220.53-2.28 221.01-2.01L221.01-2.01L221.01-2.01Q221.75-1.64 223.61-1.27L223.61-1.27L224.14-1.17L223.77 0.42L223.77 0.42Q219.42 0 218.28 0L218.28 0L218.28 0Q217.14 0 212.79 0.42L212.79 0.42L212.42-1.11L212.42-1.11Q214.23-1.43 214.99-1.83L214.99-1.83L214.99-1.83Q215.76-2.23 215.90-2.49L215.90-2.49L215.90-2.49Q216.03-2.76 216.03-3.39L216.03-3.39L216.03-13.83L216.03-13.83Q216.03-16.91 214.94-18.29L214.94-18.29L214.94-18.29Q213.85-19.66 211.15-19.66L211.15-19.66L211.15-19.66Q208.45-19.66 205.06-17.01L205.06-17.01ZM231.93-5.94L231.93-5.94Q231.93-4.45 232.88-3.39L232.88-3.39L232.88-3.39Q233.84-2.33 235.64-2.33L235.64-2.33L235.64-2.33Q237.44-2.33 240.20-4.45L240.20-4.45L240.20-10.49L236.11-9.75L236.11-9.75Q231.93-9.06 231.93-5.94L231.93-5.94ZM244.44-15.16L244.44-15.16L244.44-4.35L244.44-4.35Q244.44-2.44 246.50-2.44L246.50-2.44L247.93-2.49L248.36-0.95L248.36-0.95Q245.76-0.37 242.85 0.85L242.85 0.85L242.85 0.85Q240.88-0.48 240.35-2.70L240.35-2.70L240.35-2.70Q237.97-0.69 236.46 0.08L236.46 0.08L236.46 0.08Q234.95 0.85 233.46 0.85L233.46 0.85L233.46 0.85Q230.76 0.85 229.15-0.85L229.15-0.85L229.15-0.85Q227.53-2.54 227.53-5.43L227.53-5.43L227.53-5.43Q227.53-8.32 229.60-9.73L229.60-9.73L229.60-9.73Q231.66-11.13 235.32-11.50L235.32-11.50L240.20-12.03L240.20-14.42L240.20-14.42Q240.20-17.44 239.29-18.97L239.29-18.97L239.29-18.97Q238.39-20.51 236.04-20.51L236.04-20.51L236.04-20.51Q233.68-20.51 232.51-19.88L232.51-19.88L232.51-19.88Q232.19-18.76 232.19-15.00L232.19-15.00L229.97-14.36L229.97-14.36Q228.80-18.23 228.64-20.30L228.64-20.30L228.64-20.30Q234.37-22.90 236.91-22.90L236.91-22.90L236.91-22.90Q240.83-22.90 242.63-21.01L242.63-21.01L242.63-21.01Q244.44-19.13 244.44-15.16ZM259.22-17.01L259.22-3.39L259.22-3.39Q259.22-2.70 259.36-2.46L259.36-2.46L259.36-2.46Q259.49-2.23 260.02-1.96L260.02-1.96L260.02-1.96Q261.02-1.43 262.88-1.11L262.88-1.11L262.51 0.42L262.51 0.42Q258.16 0 257.02 0L257.02 0L257.02 0Q255.88 0 251.54 0.42L251.54 0.42L251.11-1.17L251.11-1.17Q253.18-1.48 253.95-1.88L253.95-1.88L253.95-1.88Q254.72-2.28 254.85-2.54L254.85-2.54L254.85-2.54Q254.98-2.81 254.98-3.50L254.98-3.50L254.98-17.81L254.98-17.81Q254.98-19.40 254.08-19.56L254.08-19.56L254.08-19.56Q253.18-19.66 251.75-19.40L251.75-19.40L251.17-19.29L250.90-20.88L250.90-20.88Q254.66-22.52 257.79-22.90L257.79-22.90L258.64-21.94L258.64-21.94Q258.64-20.56 259.17-18.97L259.17-18.97L261.18-20.51L261.18-20.51Q264.20-22.90 267.54-22.90L267.54-22.90L267.54-22.90Q270.88-22.90 272.66-21.04L272.66-21.04L272.66-21.04Q274.43-19.19 274.43-14.89L274.43-14.89L274.43-3.50L274.43-3.50Q274.43-2.81 274.57-2.54L274.57-2.54L274.57-2.54Q274.70-2.28 275.18-2.01L275.18-2.01L275.18-2.01Q275.92-1.64 277.77-1.27L277.77-1.27L278.30-1.17L277.93 0.42L277.93 0.42Q273.59 0 272.45 0L272.45 0L272.45 0Q271.31 0 266.96 0.42L266.96 0.42L266.59-1.11L266.59-1.11Q268.39-1.43 269.16-1.83L269.16-1.83L269.16-1.83Q269.93-2.23 270.06-2.49L270.06-2.49L270.06-2.49Q270.19-2.76 270.19-3.39L270.19-3.39L270.19-13.83L270.19-13.83Q270.19-16.91 269.11-18.29L269.11-18.29L269.11-18.29Q268.02-19.66 265.32-19.66L265.32-19.66L265.32-19.66Q262.62-19.66 259.22-17.01L259.22-17.01ZM298.55-13.73L296.75-14.04L296.75-14.04Q296.80-14.57 296.80-15.32L296.80-15.32L296.80-15.32Q296.80-18.50 296.22-19.66L296.22-19.66L296.22-19.66Q294.79-20.67 291.82-20.67L291.82-20.67L291.82-20.67Q286.31-20.67 286.31-11.82L286.31-11.82L286.31-11.82Q286.31-7.26 288.37-4.88L288.37-4.88L288.37-4.88Q290.44-2.49 293.62-2.49L293.62-2.49L293.62-2.49Q296.80-2.49 299.98-4.66L299.98-4.66L300.83-3.39L300.83-3.39Q296.11 0.85 292.19 0.85L292.19 0.85L292.19 0.85Q287.47 0.85 284.53-2.28L284.53-2.28L284.53-2.28Q281.59-5.41 281.59-10.57L281.59-10.57L281.59-10.57Q281.59-15.74 284.48-19.32L284.48-19.32L284.48-19.32Q287.37-22.90 292.24-22.90L292.24-22.90L292.24-22.90Q293.88-22.90 296.48-22.18L296.48-22.18L296.48-22.18Q299.08-21.46 300.46-20.88L300.46-20.88L300.46-20.88Q300.35-19.77 299.69-17.25L299.69-17.25L299.69-17.25Q299.03-14.73 298.55-13.73L298.55-13.73ZM316.99-2.49L316.99-2.49L316.99-2.49Q320.17-2.49 323.35-4.77L323.35-4.77L324.20-3.60L324.20-3.60Q319.38 0.85 314.90 0.85L314.90 0.85L314.90 0.85Q310.42 0.85 307.53-2.25L307.53-2.25L307.53-2.25Q304.64-5.35 304.64-10.49L304.64-10.49L304.64-10.49Q304.64-15.63 307.56-19.27L307.56-19.27L307.56-19.27Q310.47-22.90 315.11-22.90L315.11-22.90L315.11-22.90Q319.75-22.90 322.03-20.01L322.03-20.01L322.03-20.01Q324.31-17.12 324.31-12.19L324.31-12.19L309.36-11.13L309.36-11.13Q309.79-2.49 316.99-2.49ZM314.82-20.72L314.82-20.72L314.82-20.72Q312.01-20.72 310.69-18.47L310.69-18.47L310.69-18.47Q309.36-16.22 309.36-13.04L309.36-13.04L319.54-14.31L319.54-14.31Q319.54-20.72 314.82-20.72Z" fill="#689cc5"></path></g></g><style>text {
  font-size: 64px;
  font-family: Arial Black;
  dominant-baseline: central;
  text-anchor: middle;
}</style></svg>